<mxfile host="Electron" modified="2024-04-23T14:52:23.149Z" agent="Mozilla/5.0 (X11; Linux x86_64) AppleWebKit/537.36 (KHTML, like Gecko) draw.io/24.2.5 Chrome/120.0.6099.109 Electron/28.1.0 Safari/537.36" etag="Ze-lmuSd9Nrs4xRoZVLU" version="24.2.5" type="device">
  <diagram name="Page-1" id="XowFCG3Ka7jEHskfLVU-">
    <mxGraphModel dx="2049" dy="1193" grid="1" gridSize="10" guides="1" tooltips="1" connect="1" arrows="1" fold="1" page="1" pageScale="1" pageWidth="850" pageHeight="1100" math="0" shadow="0">
      <root>
        <mxCell id="0" />
        <mxCell id="1" parent="0" />
        <mxCell id="vUPf7nipqJu-CM0d_MJs-1" value="PageLoad" style="rounded=1;whiteSpace=wrap;html=1;shadow=0;strokeColor=default;strokeWidth=2;fontFamily=Ubuntu;fontSize=22;fontColor=#264653;fontStyle=0;fillColor=#CFE2F3;comic=1;" parent="1" vertex="1">
          <mxGeometry x="150" y="220" width="120" height="60" as="geometry" />
        </mxCell>
        <mxCell id="vUPf7nipqJu-CM0d_MJs-2" value="PageUnload" style="rounded=1;whiteSpace=wrap;html=1;shadow=0;strokeColor=default;strokeWidth=2;fontFamily=Ubuntu;fontSize=22;fontColor=#264653;fontStyle=0;fillColor=#CFE2F3;comic=1;" parent="1" vertex="1">
          <mxGeometry x="140" y="310" width="130" height="60" as="geometry" />
        </mxCell>
        <mxCell id="vUPf7nipqJu-CM0d_MJs-4" value="KeyPress" style="rounded=1;whiteSpace=wrap;html=1;shadow=0;strokeColor=default;strokeWidth=2;fontFamily=Ubuntu;fontSize=22;fontColor=#264653;fontStyle=0;fillColor=#CFE2F3;comic=1;" parent="1" vertex="1">
          <mxGeometry x="150" y="400" width="120" height="60" as="geometry" />
        </mxCell>
        <mxCell id="PiwZXt4cNnozb1wIIHgG-2" value="Click" style="rounded=1;whiteSpace=wrap;html=1;shadow=0;strokeColor=default;strokeWidth=2;fontFamily=Ubuntu;fontSize=22;fontColor=#264653;fontStyle=0;fillColor=#CFE2F3;comic=1;" parent="1" vertex="1">
          <mxGeometry x="150" y="690" width="120" height="60" as="geometry" />
        </mxCell>
        <mxCell id="PiwZXt4cNnozb1wIIHgG-8" value="" style="group" parent="1" vertex="1" connectable="0">
          <mxGeometry x="330" y="230" width="200" height="40" as="geometry" />
        </mxCell>
        <mxCell id="vUPf7nipqJu-CM0d_MJs-5" value="0" style="rounded=0;whiteSpace=wrap;html=1;shadow=0;strokeColor=#264653;strokeWidth=2;fontFamily=Ubuntu;fontSize=22;fontColor=#264653;fontStyle=0;fillColor=#2a9d8f;comic=0;" parent="PiwZXt4cNnozb1wIIHgG-8" vertex="1">
          <mxGeometry width="50" height="40" as="geometry" />
        </mxCell>
        <mxCell id="PiwZXt4cNnozb1wIIHgG-5" value="" style="rounded=0;whiteSpace=wrap;html=1;shadow=0;strokeColor=#666666;strokeWidth=2;fontFamily=Ubuntu;fontSize=22;fontColor=#333333;fontStyle=0;fillColor=#f5f5f5;comic=0;" parent="PiwZXt4cNnozb1wIIHgG-8" vertex="1">
          <mxGeometry x="50" width="50" height="40" as="geometry" />
        </mxCell>
        <mxCell id="PiwZXt4cNnozb1wIIHgG-6" value="" style="rounded=0;whiteSpace=wrap;html=1;shadow=0;strokeColor=#666666;strokeWidth=2;fontFamily=Ubuntu;fontSize=22;fontColor=#333333;fontStyle=0;fillColor=#f5f5f5;comic=0;" parent="PiwZXt4cNnozb1wIIHgG-8" vertex="1">
          <mxGeometry x="100" width="50" height="40" as="geometry" />
        </mxCell>
        <mxCell id="PiwZXt4cNnozb1wIIHgG-7" value="" style="rounded=0;whiteSpace=wrap;html=1;shadow=0;strokeColor=#666666;strokeWidth=2;fontFamily=Ubuntu;fontSize=22;fontColor=#333333;fontStyle=0;fillColor=#f5f5f5;comic=0;" parent="PiwZXt4cNnozb1wIIHgG-8" vertex="1">
          <mxGeometry x="150" width="50" height="40" as="geometry" />
        </mxCell>
        <mxCell id="PiwZXt4cNnozb1wIIHgG-10" value="" style="group" parent="1" vertex="1" connectable="0">
          <mxGeometry x="330" y="320" width="200" height="40" as="geometry" />
        </mxCell>
        <mxCell id="PiwZXt4cNnozb1wIIHgG-11" value="1" style="rounded=0;whiteSpace=wrap;html=1;shadow=0;strokeColor=#264653;strokeWidth=2;fontFamily=Ubuntu;fontSize=22;fontColor=#264653;fontStyle=0;fillColor=#2a9d8f;comic=0;" parent="PiwZXt4cNnozb1wIIHgG-10" vertex="1">
          <mxGeometry width="50" height="40" as="geometry" />
        </mxCell>
        <mxCell id="PiwZXt4cNnozb1wIIHgG-12" value="" style="rounded=0;whiteSpace=wrap;html=1;shadow=0;strokeColor=#666666;strokeWidth=2;fontFamily=Ubuntu;fontSize=22;fontColor=#333333;fontStyle=0;fillColor=#f5f5f5;comic=0;" parent="PiwZXt4cNnozb1wIIHgG-10" vertex="1">
          <mxGeometry x="50" width="50" height="40" as="geometry" />
        </mxCell>
        <mxCell id="PiwZXt4cNnozb1wIIHgG-13" value="" style="rounded=0;whiteSpace=wrap;html=1;shadow=0;strokeColor=#666666;strokeWidth=2;fontFamily=Ubuntu;fontSize=22;fontColor=#333333;fontStyle=0;fillColor=#f5f5f5;comic=0;" parent="PiwZXt4cNnozb1wIIHgG-10" vertex="1">
          <mxGeometry x="100" width="50" height="40" as="geometry" />
        </mxCell>
        <mxCell id="PiwZXt4cNnozb1wIIHgG-14" value="" style="rounded=0;whiteSpace=wrap;html=1;shadow=0;strokeColor=#666666;strokeWidth=2;fontFamily=Ubuntu;fontSize=22;fontColor=#333333;fontStyle=0;fillColor=#f5f5f5;comic=0;" parent="PiwZXt4cNnozb1wIIHgG-10" vertex="1">
          <mxGeometry x="150" width="50" height="40" as="geometry" />
        </mxCell>
        <mxCell id="PiwZXt4cNnozb1wIIHgG-15" value="" style="group" parent="1" vertex="1" connectable="0">
          <mxGeometry x="330" y="410" width="200" height="40" as="geometry" />
        </mxCell>
        <mxCell id="PiwZXt4cNnozb1wIIHgG-16" value="2" style="rounded=0;whiteSpace=wrap;html=1;shadow=0;strokeColor=#264653;strokeWidth=2;fontFamily=Ubuntu;fontSize=22;fontColor=#264653;fontStyle=0;fillColor=#2a9d8f;comic=0;" parent="PiwZXt4cNnozb1wIIHgG-15" vertex="1">
          <mxGeometry width="50" height="40" as="geometry" />
        </mxCell>
        <mxCell id="PiwZXt4cNnozb1wIIHgG-17" value="" style="rounded=0;whiteSpace=wrap;html=1;shadow=0;strokeColor=#666666;strokeWidth=2;fontFamily=Ubuntu;fontSize=22;fontColor=#333333;fontStyle=0;fillColor=#f5f5f5;comic=0;" parent="PiwZXt4cNnozb1wIIHgG-15" vertex="1">
          <mxGeometry x="50" width="50" height="40" as="geometry" />
        </mxCell>
        <mxCell id="PiwZXt4cNnozb1wIIHgG-18" value="" style="rounded=0;whiteSpace=wrap;html=1;shadow=0;strokeColor=#666666;strokeWidth=2;fontFamily=Ubuntu;fontSize=22;fontColor=#333333;fontStyle=0;fillColor=#f5f5f5;comic=0;" parent="PiwZXt4cNnozb1wIIHgG-15" vertex="1">
          <mxGeometry x="100" width="50" height="40" as="geometry" />
        </mxCell>
        <mxCell id="PiwZXt4cNnozb1wIIHgG-19" value="" style="rounded=0;whiteSpace=wrap;html=1;shadow=0;strokeColor=#666666;strokeWidth=2;fontFamily=Ubuntu;fontSize=22;fontColor=#333333;fontStyle=0;fillColor=#f5f5f5;comic=0;" parent="PiwZXt4cNnozb1wIIHgG-15" vertex="1">
          <mxGeometry x="150" width="50" height="40" as="geometry" />
        </mxCell>
        <mxCell id="PiwZXt4cNnozb1wIIHgG-41" value="" style="group" parent="1" vertex="1" connectable="0">
          <mxGeometry x="730" y="230" width="200" height="40" as="geometry" />
        </mxCell>
        <mxCell id="PiwZXt4cNnozb1wIIHgG-42" value="" style="rounded=0;whiteSpace=wrap;html=1;shadow=0;strokeColor=#666666;strokeWidth=2;fontFamily=Ubuntu;fontSize=22;fontColor=#333333;fontStyle=0;fillColor=#f5f5f5;comic=0;" parent="PiwZXt4cNnozb1wIIHgG-41" vertex="1">
          <mxGeometry x="50" width="50" height="40" as="geometry" />
        </mxCell>
        <mxCell id="PiwZXt4cNnozb1wIIHgG-43" value="" style="rounded=0;whiteSpace=wrap;html=1;shadow=0;strokeColor=#666666;strokeWidth=2;fontFamily=Ubuntu;fontSize=22;fontColor=#333333;fontStyle=0;fillColor=#f5f5f5;comic=0;" parent="PiwZXt4cNnozb1wIIHgG-41" vertex="1">
          <mxGeometry x="100" width="50" height="40" as="geometry" />
        </mxCell>
        <mxCell id="PiwZXt4cNnozb1wIIHgG-44" value="" style="rounded=0;whiteSpace=wrap;html=1;shadow=0;strokeColor=#666666;strokeWidth=2;fontFamily=Ubuntu;fontSize=22;fontColor=#333333;fontStyle=0;fillColor=#f5f5f5;comic=0;" parent="PiwZXt4cNnozb1wIIHgG-41" vertex="1">
          <mxGeometry x="150" width="50" height="40" as="geometry" />
        </mxCell>
        <mxCell id="PiwZXt4cNnozb1wIIHgG-45" value="" style="rounded=0;whiteSpace=wrap;html=1;shadow=0;strokeColor=#666666;strokeWidth=2;fontFamily=Ubuntu;fontSize=22;fontColor=#333333;fontStyle=0;fillColor=#f5f5f5;comic=0;" parent="PiwZXt4cNnozb1wIIHgG-41" vertex="1">
          <mxGeometry width="50" height="40" as="geometry" />
        </mxCell>
        <mxCell id="PiwZXt4cNnozb1wIIHgG-51" value="" style="group" parent="1" vertex="1" connectable="0">
          <mxGeometry x="730" y="320" width="200" height="40" as="geometry" />
        </mxCell>
        <mxCell id="PiwZXt4cNnozb1wIIHgG-52" value="" style="rounded=0;whiteSpace=wrap;html=1;shadow=0;strokeColor=#666666;strokeWidth=2;fontFamily=Ubuntu;fontSize=22;fontColor=#333333;fontStyle=0;fillColor=#f5f5f5;comic=0;" parent="PiwZXt4cNnozb1wIIHgG-51" vertex="1">
          <mxGeometry x="50" width="50" height="40" as="geometry" />
        </mxCell>
        <mxCell id="PiwZXt4cNnozb1wIIHgG-53" value="" style="rounded=0;whiteSpace=wrap;html=1;shadow=0;strokeColor=#666666;strokeWidth=2;fontFamily=Ubuntu;fontSize=22;fontColor=#333333;fontStyle=0;fillColor=#f5f5f5;comic=0;" parent="PiwZXt4cNnozb1wIIHgG-51" vertex="1">
          <mxGeometry x="100" width="50" height="40" as="geometry" />
        </mxCell>
        <mxCell id="PiwZXt4cNnozb1wIIHgG-54" value="" style="rounded=0;whiteSpace=wrap;html=1;shadow=0;strokeColor=#666666;strokeWidth=2;fontFamily=Ubuntu;fontSize=22;fontColor=#333333;fontStyle=0;fillColor=#f5f5f5;comic=0;" parent="PiwZXt4cNnozb1wIIHgG-51" vertex="1">
          <mxGeometry x="150" width="50" height="40" as="geometry" />
        </mxCell>
        <mxCell id="PiwZXt4cNnozb1wIIHgG-55" value="" style="rounded=0;whiteSpace=wrap;html=1;shadow=0;strokeColor=#666666;strokeWidth=2;fontFamily=Ubuntu;fontSize=22;fontColor=#333333;fontStyle=0;fillColor=#f5f5f5;comic=0;" parent="PiwZXt4cNnozb1wIIHgG-51" vertex="1">
          <mxGeometry width="50" height="40" as="geometry" />
        </mxCell>
        <mxCell id="PiwZXt4cNnozb1wIIHgG-73" value="" style="group" parent="1" vertex="1" connectable="0">
          <mxGeometry x="330" y="700" width="200" height="40" as="geometry" />
        </mxCell>
        <mxCell id="PiwZXt4cNnozb1wIIHgG-74" value="5" style="rounded=0;whiteSpace=wrap;html=1;shadow=0;strokeColor=#264653;strokeWidth=2;fontFamily=Ubuntu;fontSize=22;fontColor=#264653;fontStyle=0;fillColor=#2a9d8f;comic=0;" parent="PiwZXt4cNnozb1wIIHgG-73" vertex="1">
          <mxGeometry width="50" height="40" as="geometry" />
        </mxCell>
        <mxCell id="PiwZXt4cNnozb1wIIHgG-75" value="" style="rounded=0;whiteSpace=wrap;html=1;shadow=0;strokeColor=#666666;strokeWidth=2;fontFamily=Ubuntu;fontSize=22;fontColor=#333333;fontStyle=0;fillColor=#f5f5f5;comic=0;" parent="PiwZXt4cNnozb1wIIHgG-73" vertex="1">
          <mxGeometry x="50" width="50" height="40" as="geometry" />
        </mxCell>
        <mxCell id="PiwZXt4cNnozb1wIIHgG-76" value="" style="rounded=0;whiteSpace=wrap;html=1;shadow=0;strokeColor=#666666;strokeWidth=2;fontFamily=Ubuntu;fontSize=22;fontColor=#333333;fontStyle=0;fillColor=#f5f5f5;comic=0;" parent="PiwZXt4cNnozb1wIIHgG-73" vertex="1">
          <mxGeometry x="100" width="50" height="40" as="geometry" />
        </mxCell>
        <mxCell id="PiwZXt4cNnozb1wIIHgG-77" value="" style="rounded=0;whiteSpace=wrap;html=1;shadow=0;strokeColor=#666666;strokeWidth=2;fontFamily=Ubuntu;fontSize=22;fontColor=#333333;fontStyle=0;fillColor=#f5f5f5;comic=0;" parent="PiwZXt4cNnozb1wIIHgG-73" vertex="1">
          <mxGeometry x="150" width="50" height="40" as="geometry" />
        </mxCell>
        <mxCell id="PiwZXt4cNnozb1wIIHgG-95" value="61" style="rounded=0;whiteSpace=wrap;html=1;shadow=0;strokeColor=#6c8ebf;strokeWidth=2;fontFamily=Ubuntu;fontSize=22;fontColor=#264653;fontStyle=0;fillColor=#dae8fc;comic=0;" parent="1" vertex="1">
          <mxGeometry x="530" y="410" width="200" height="40" as="geometry" />
        </mxCell>
        <mxCell id="PiwZXt4cNnozb1wIIHgG-99" value="42" style="rounded=0;whiteSpace=wrap;html=1;shadow=0;strokeColor=#6c8ebf;strokeWidth=2;fontFamily=Ubuntu;fontSize=22;fontColor=#264653;fontStyle=0;fillColor=#dae8fc;comic=0;" parent="1" vertex="1">
          <mxGeometry x="530" y="700" width="200" height="40" as="geometry" />
        </mxCell>
        <mxCell id="PiwZXt4cNnozb1wIIHgG-101" value="43" style="rounded=0;whiteSpace=wrap;html=1;shadow=0;strokeColor=#6c8ebf;strokeWidth=2;fontFamily=Ubuntu;fontSize=22;fontColor=#264653;fontStyle=0;fillColor=#dae8fc;comic=0;" parent="1" vertex="1">
          <mxGeometry x="730" y="700" width="200" height="40" as="geometry" />
        </mxCell>
        <mxCell id="x3D--EsQKDo731koyJ-O-1" value="Paste" style="rounded=1;whiteSpace=wrap;html=1;shadow=0;strokeColor=default;strokeWidth=2;fontFamily=Ubuntu;fontSize=22;fontColor=#264653;fontStyle=0;fillColor=#CFE2F3;comic=1;" parent="1" vertex="1">
          <mxGeometry x="150" y="490" width="120" height="60" as="geometry" />
        </mxCell>
        <mxCell id="NgqLDLgxcCzB81dorVKN-1" value="" style="group" parent="1" vertex="1" connectable="0">
          <mxGeometry x="930" y="230" width="200" height="40" as="geometry" />
        </mxCell>
        <mxCell id="NgqLDLgxcCzB81dorVKN-2" value="" style="rounded=0;whiteSpace=wrap;html=1;shadow=0;strokeColor=#666666;strokeWidth=2;fontFamily=Ubuntu;fontSize=22;fontColor=#333333;fontStyle=0;fillColor=#f5f5f5;comic=0;" parent="NgqLDLgxcCzB81dorVKN-1" vertex="1">
          <mxGeometry x="50" width="50" height="40" as="geometry" />
        </mxCell>
        <mxCell id="NgqLDLgxcCzB81dorVKN-3" value="" style="rounded=0;whiteSpace=wrap;html=1;shadow=0;strokeColor=#666666;strokeWidth=2;fontFamily=Ubuntu;fontSize=22;fontColor=#333333;fontStyle=0;fillColor=#f5f5f5;comic=0;" parent="NgqLDLgxcCzB81dorVKN-1" vertex="1">
          <mxGeometry x="100" width="50" height="40" as="geometry" />
        </mxCell>
        <mxCell id="NgqLDLgxcCzB81dorVKN-4" value="" style="rounded=0;whiteSpace=wrap;html=1;shadow=0;strokeColor=#666666;strokeWidth=2;fontFamily=Ubuntu;fontSize=22;fontColor=#333333;fontStyle=0;fillColor=#f5f5f5;comic=0;" parent="NgqLDLgxcCzB81dorVKN-1" vertex="1">
          <mxGeometry x="150" width="50" height="40" as="geometry" />
        </mxCell>
        <mxCell id="NgqLDLgxcCzB81dorVKN-5" value="" style="rounded=0;whiteSpace=wrap;html=1;shadow=0;strokeColor=#666666;strokeWidth=2;fontFamily=Ubuntu;fontSize=22;fontColor=#333333;fontStyle=0;fillColor=#f5f5f5;comic=0;" parent="NgqLDLgxcCzB81dorVKN-1" vertex="1">
          <mxGeometry width="50" height="40" as="geometry" />
        </mxCell>
        <mxCell id="NgqLDLgxcCzB81dorVKN-6" value="" style="group" parent="1" vertex="1" connectable="0">
          <mxGeometry x="930" y="320" width="200" height="40" as="geometry" />
        </mxCell>
        <mxCell id="NgqLDLgxcCzB81dorVKN-7" value="" style="rounded=0;whiteSpace=wrap;html=1;shadow=0;strokeColor=#666666;strokeWidth=2;fontFamily=Ubuntu;fontSize=22;fontColor=#333333;fontStyle=0;fillColor=#f5f5f5;comic=0;" parent="NgqLDLgxcCzB81dorVKN-6" vertex="1">
          <mxGeometry x="50" width="50" height="40" as="geometry" />
        </mxCell>
        <mxCell id="NgqLDLgxcCzB81dorVKN-8" value="" style="rounded=0;whiteSpace=wrap;html=1;shadow=0;strokeColor=#666666;strokeWidth=2;fontFamily=Ubuntu;fontSize=22;fontColor=#333333;fontStyle=0;fillColor=#f5f5f5;comic=0;" parent="NgqLDLgxcCzB81dorVKN-6" vertex="1">
          <mxGeometry x="100" width="50" height="40" as="geometry" />
        </mxCell>
        <mxCell id="NgqLDLgxcCzB81dorVKN-9" value="" style="rounded=0;whiteSpace=wrap;html=1;shadow=0;strokeColor=#666666;strokeWidth=2;fontFamily=Ubuntu;fontSize=22;fontColor=#333333;fontStyle=0;fillColor=#f5f5f5;comic=0;" parent="NgqLDLgxcCzB81dorVKN-6" vertex="1">
          <mxGeometry x="150" width="50" height="40" as="geometry" />
        </mxCell>
        <mxCell id="NgqLDLgxcCzB81dorVKN-10" value="" style="rounded=0;whiteSpace=wrap;html=1;shadow=0;strokeColor=#666666;strokeWidth=2;fontFamily=Ubuntu;fontSize=22;fontColor=#333333;fontStyle=0;fillColor=#f5f5f5;comic=0;" parent="NgqLDLgxcCzB81dorVKN-6" vertex="1">
          <mxGeometry width="50" height="40" as="geometry" />
        </mxCell>
        <mxCell id="NgqLDLgxcCzB81dorVKN-11" value="" style="group" parent="1" vertex="1" connectable="0">
          <mxGeometry x="930" y="700" width="200" height="40" as="geometry" />
        </mxCell>
        <mxCell id="NgqLDLgxcCzB81dorVKN-12" value="" style="rounded=0;whiteSpace=wrap;html=1;shadow=0;strokeColor=#666666;strokeWidth=2;fontFamily=Ubuntu;fontSize=22;fontColor=#333333;fontStyle=0;fillColor=#f5f5f5;comic=0;" parent="NgqLDLgxcCzB81dorVKN-11" vertex="1">
          <mxGeometry x="50" width="50" height="40" as="geometry" />
        </mxCell>
        <mxCell id="NgqLDLgxcCzB81dorVKN-13" value="" style="rounded=0;whiteSpace=wrap;html=1;shadow=0;strokeColor=#666666;strokeWidth=2;fontFamily=Ubuntu;fontSize=22;fontColor=#333333;fontStyle=0;fillColor=#f5f5f5;comic=0;" parent="NgqLDLgxcCzB81dorVKN-11" vertex="1">
          <mxGeometry x="100" width="50" height="40" as="geometry" />
        </mxCell>
        <mxCell id="NgqLDLgxcCzB81dorVKN-14" value="" style="rounded=0;whiteSpace=wrap;html=1;shadow=0;strokeColor=#666666;strokeWidth=2;fontFamily=Ubuntu;fontSize=22;fontColor=#333333;fontStyle=0;fillColor=#f5f5f5;comic=0;" parent="NgqLDLgxcCzB81dorVKN-11" vertex="1">
          <mxGeometry x="150" width="50" height="40" as="geometry" />
        </mxCell>
        <mxCell id="NgqLDLgxcCzB81dorVKN-15" value="" style="rounded=0;whiteSpace=wrap;html=1;shadow=0;strokeColor=#666666;strokeWidth=2;fontFamily=Ubuntu;fontSize=22;fontColor=#333333;fontStyle=0;fillColor=#f5f5f5;comic=0;" parent="NgqLDLgxcCzB81dorVKN-11" vertex="1">
          <mxGeometry width="50" height="40" as="geometry" />
        </mxCell>
        <mxCell id="NgqLDLgxcCzB81dorVKN-22" value="" style="group" parent="1" vertex="1" connectable="0">
          <mxGeometry x="1130" y="410" width="400" height="40" as="geometry" />
        </mxCell>
        <mxCell id="NgqLDLgxcCzB81dorVKN-23" value="" style="group" parent="NgqLDLgxcCzB81dorVKN-22" vertex="1" connectable="0">
          <mxGeometry width="200" height="40" as="geometry" />
        </mxCell>
        <mxCell id="NgqLDLgxcCzB81dorVKN-24" value="" style="rounded=0;whiteSpace=wrap;html=1;shadow=0;strokeColor=#666666;strokeWidth=2;fontFamily=Ubuntu;fontSize=22;fontColor=#333333;fontStyle=0;fillColor=#f5f5f5;comic=0;" parent="NgqLDLgxcCzB81dorVKN-23" vertex="1">
          <mxGeometry x="50" width="50" height="40" as="geometry" />
        </mxCell>
        <mxCell id="NgqLDLgxcCzB81dorVKN-25" value="" style="rounded=0;whiteSpace=wrap;html=1;shadow=0;strokeColor=#666666;strokeWidth=2;fontFamily=Ubuntu;fontSize=22;fontColor=#333333;fontStyle=0;fillColor=#f5f5f5;comic=0;" parent="NgqLDLgxcCzB81dorVKN-23" vertex="1">
          <mxGeometry x="100" width="50" height="40" as="geometry" />
        </mxCell>
        <mxCell id="NgqLDLgxcCzB81dorVKN-26" value="" style="rounded=0;whiteSpace=wrap;html=1;shadow=0;strokeColor=#666666;strokeWidth=2;fontFamily=Ubuntu;fontSize=22;fontColor=#333333;fontStyle=0;fillColor=#f5f5f5;comic=0;" parent="NgqLDLgxcCzB81dorVKN-23" vertex="1">
          <mxGeometry x="150" width="50" height="40" as="geometry" />
        </mxCell>
        <mxCell id="NgqLDLgxcCzB81dorVKN-27" value="" style="rounded=0;whiteSpace=wrap;html=1;shadow=0;strokeColor=#666666;strokeWidth=2;fontFamily=Ubuntu;fontSize=22;fontColor=#333333;fontStyle=0;fillColor=#f5f5f5;comic=0;" parent="NgqLDLgxcCzB81dorVKN-23" vertex="1">
          <mxGeometry width="50" height="40" as="geometry" />
        </mxCell>
        <mxCell id="NgqLDLgxcCzB81dorVKN-28" value="" style="group" parent="NgqLDLgxcCzB81dorVKN-22" vertex="1" connectable="0">
          <mxGeometry x="200" width="200" height="40" as="geometry" />
        </mxCell>
        <mxCell id="NgqLDLgxcCzB81dorVKN-29" value="" style="rounded=0;whiteSpace=wrap;html=1;shadow=0;strokeColor=#666666;strokeWidth=2;fontFamily=Ubuntu;fontSize=22;fontColor=#333333;fontStyle=0;fillColor=#f5f5f5;comic=0;" parent="NgqLDLgxcCzB81dorVKN-28" vertex="1">
          <mxGeometry x="50" width="50" height="40" as="geometry" />
        </mxCell>
        <mxCell id="NgqLDLgxcCzB81dorVKN-30" value="" style="rounded=0;whiteSpace=wrap;html=1;shadow=0;strokeColor=#666666;strokeWidth=2;fontFamily=Ubuntu;fontSize=22;fontColor=#333333;fontStyle=0;fillColor=#f5f5f5;comic=0;" parent="NgqLDLgxcCzB81dorVKN-28" vertex="1">
          <mxGeometry x="100" width="50" height="40" as="geometry" />
        </mxCell>
        <mxCell id="NgqLDLgxcCzB81dorVKN-31" value="" style="rounded=0;whiteSpace=wrap;html=1;shadow=0;strokeColor=#666666;strokeWidth=2;fontFamily=Ubuntu;fontSize=22;fontColor=#333333;fontStyle=0;fillColor=#f5f5f5;comic=0;" parent="NgqLDLgxcCzB81dorVKN-28" vertex="1">
          <mxGeometry x="150" width="50" height="40" as="geometry" />
        </mxCell>
        <mxCell id="NgqLDLgxcCzB81dorVKN-32" value="" style="rounded=0;whiteSpace=wrap;html=1;shadow=0;strokeColor=#666666;strokeWidth=2;fontFamily=Ubuntu;fontSize=22;fontColor=#333333;fontStyle=0;fillColor=#f5f5f5;comic=0;" parent="NgqLDLgxcCzB81dorVKN-28" vertex="1">
          <mxGeometry width="50" height="40" as="geometry" />
        </mxCell>
        <mxCell id="NgqLDLgxcCzB81dorVKN-33" value="" style="group" parent="1" vertex="1" connectable="0">
          <mxGeometry x="1130" y="320" width="400" height="40" as="geometry" />
        </mxCell>
        <mxCell id="NgqLDLgxcCzB81dorVKN-34" value="" style="group" parent="NgqLDLgxcCzB81dorVKN-33" vertex="1" connectable="0">
          <mxGeometry width="200" height="40" as="geometry" />
        </mxCell>
        <mxCell id="NgqLDLgxcCzB81dorVKN-35" value="" style="rounded=0;whiteSpace=wrap;html=1;shadow=0;strokeColor=#666666;strokeWidth=2;fontFamily=Ubuntu;fontSize=22;fontColor=#333333;fontStyle=0;fillColor=#f5f5f5;comic=0;" parent="NgqLDLgxcCzB81dorVKN-34" vertex="1">
          <mxGeometry x="50" width="50" height="40" as="geometry" />
        </mxCell>
        <mxCell id="NgqLDLgxcCzB81dorVKN-36" value="" style="rounded=0;whiteSpace=wrap;html=1;shadow=0;strokeColor=#666666;strokeWidth=2;fontFamily=Ubuntu;fontSize=22;fontColor=#333333;fontStyle=0;fillColor=#f5f5f5;comic=0;" parent="NgqLDLgxcCzB81dorVKN-34" vertex="1">
          <mxGeometry x="100" width="50" height="40" as="geometry" />
        </mxCell>
        <mxCell id="NgqLDLgxcCzB81dorVKN-37" value="" style="rounded=0;whiteSpace=wrap;html=1;shadow=0;strokeColor=#666666;strokeWidth=2;fontFamily=Ubuntu;fontSize=22;fontColor=#333333;fontStyle=0;fillColor=#f5f5f5;comic=0;" parent="NgqLDLgxcCzB81dorVKN-34" vertex="1">
          <mxGeometry x="150" width="50" height="40" as="geometry" />
        </mxCell>
        <mxCell id="NgqLDLgxcCzB81dorVKN-38" value="" style="rounded=0;whiteSpace=wrap;html=1;shadow=0;strokeColor=#666666;strokeWidth=2;fontFamily=Ubuntu;fontSize=22;fontColor=#333333;fontStyle=0;fillColor=#f5f5f5;comic=0;" parent="NgqLDLgxcCzB81dorVKN-34" vertex="1">
          <mxGeometry width="50" height="40" as="geometry" />
        </mxCell>
        <mxCell id="NgqLDLgxcCzB81dorVKN-39" value="" style="group" parent="NgqLDLgxcCzB81dorVKN-33" vertex="1" connectable="0">
          <mxGeometry x="200" width="200" height="40" as="geometry" />
        </mxCell>
        <mxCell id="NgqLDLgxcCzB81dorVKN-40" value="" style="rounded=0;whiteSpace=wrap;html=1;shadow=0;strokeColor=#666666;strokeWidth=2;fontFamily=Ubuntu;fontSize=22;fontColor=#333333;fontStyle=0;fillColor=#f5f5f5;comic=0;" parent="NgqLDLgxcCzB81dorVKN-39" vertex="1">
          <mxGeometry x="50" width="50" height="40" as="geometry" />
        </mxCell>
        <mxCell id="NgqLDLgxcCzB81dorVKN-41" value="" style="rounded=0;whiteSpace=wrap;html=1;shadow=0;strokeColor=#666666;strokeWidth=2;fontFamily=Ubuntu;fontSize=22;fontColor=#333333;fontStyle=0;fillColor=#f5f5f5;comic=0;" parent="NgqLDLgxcCzB81dorVKN-39" vertex="1">
          <mxGeometry x="100" width="50" height="40" as="geometry" />
        </mxCell>
        <mxCell id="NgqLDLgxcCzB81dorVKN-42" value="" style="rounded=0;whiteSpace=wrap;html=1;shadow=0;strokeColor=#666666;strokeWidth=2;fontFamily=Ubuntu;fontSize=22;fontColor=#333333;fontStyle=0;fillColor=#f5f5f5;comic=0;" parent="NgqLDLgxcCzB81dorVKN-39" vertex="1">
          <mxGeometry x="150" width="50" height="40" as="geometry" />
        </mxCell>
        <mxCell id="NgqLDLgxcCzB81dorVKN-43" value="" style="rounded=0;whiteSpace=wrap;html=1;shadow=0;strokeColor=#666666;strokeWidth=2;fontFamily=Ubuntu;fontSize=22;fontColor=#333333;fontStyle=0;fillColor=#f5f5f5;comic=0;" parent="NgqLDLgxcCzB81dorVKN-39" vertex="1">
          <mxGeometry width="50" height="40" as="geometry" />
        </mxCell>
        <mxCell id="NgqLDLgxcCzB81dorVKN-44" value="" style="group" parent="1" vertex="1" connectable="0">
          <mxGeometry x="1130" y="230" width="400" height="40" as="geometry" />
        </mxCell>
        <mxCell id="NgqLDLgxcCzB81dorVKN-45" value="" style="group" parent="NgqLDLgxcCzB81dorVKN-44" vertex="1" connectable="0">
          <mxGeometry width="200" height="40" as="geometry" />
        </mxCell>
        <mxCell id="NgqLDLgxcCzB81dorVKN-46" value="" style="rounded=0;whiteSpace=wrap;html=1;shadow=0;strokeColor=#666666;strokeWidth=2;fontFamily=Ubuntu;fontSize=22;fontColor=#333333;fontStyle=0;fillColor=#f5f5f5;comic=0;" parent="NgqLDLgxcCzB81dorVKN-45" vertex="1">
          <mxGeometry x="50" width="50" height="40" as="geometry" />
        </mxCell>
        <mxCell id="NgqLDLgxcCzB81dorVKN-47" value="" style="rounded=0;whiteSpace=wrap;html=1;shadow=0;strokeColor=#666666;strokeWidth=2;fontFamily=Ubuntu;fontSize=22;fontColor=#333333;fontStyle=0;fillColor=#f5f5f5;comic=0;" parent="NgqLDLgxcCzB81dorVKN-45" vertex="1">
          <mxGeometry x="100" width="50" height="40" as="geometry" />
        </mxCell>
        <mxCell id="NgqLDLgxcCzB81dorVKN-48" value="" style="rounded=0;whiteSpace=wrap;html=1;shadow=0;strokeColor=#666666;strokeWidth=2;fontFamily=Ubuntu;fontSize=22;fontColor=#333333;fontStyle=0;fillColor=#f5f5f5;comic=0;" parent="NgqLDLgxcCzB81dorVKN-45" vertex="1">
          <mxGeometry x="150" width="50" height="40" as="geometry" />
        </mxCell>
        <mxCell id="NgqLDLgxcCzB81dorVKN-49" value="" style="rounded=0;whiteSpace=wrap;html=1;shadow=0;strokeColor=#666666;strokeWidth=2;fontFamily=Ubuntu;fontSize=22;fontColor=#333333;fontStyle=0;fillColor=#f5f5f5;comic=0;" parent="NgqLDLgxcCzB81dorVKN-45" vertex="1">
          <mxGeometry width="50" height="40" as="geometry" />
        </mxCell>
        <mxCell id="NgqLDLgxcCzB81dorVKN-50" value="" style="group" parent="NgqLDLgxcCzB81dorVKN-44" vertex="1" connectable="0">
          <mxGeometry x="200" width="200" height="40" as="geometry" />
        </mxCell>
        <mxCell id="NgqLDLgxcCzB81dorVKN-51" value="" style="rounded=0;whiteSpace=wrap;html=1;shadow=0;strokeColor=#666666;strokeWidth=2;fontFamily=Ubuntu;fontSize=22;fontColor=#333333;fontStyle=0;fillColor=#f5f5f5;comic=0;" parent="NgqLDLgxcCzB81dorVKN-50" vertex="1">
          <mxGeometry x="50" width="50" height="40" as="geometry" />
        </mxCell>
        <mxCell id="NgqLDLgxcCzB81dorVKN-52" value="" style="rounded=0;whiteSpace=wrap;html=1;shadow=0;strokeColor=#666666;strokeWidth=2;fontFamily=Ubuntu;fontSize=22;fontColor=#333333;fontStyle=0;fillColor=#f5f5f5;comic=0;" parent="NgqLDLgxcCzB81dorVKN-50" vertex="1">
          <mxGeometry x="100" width="50" height="40" as="geometry" />
        </mxCell>
        <mxCell id="NgqLDLgxcCzB81dorVKN-53" value="" style="rounded=0;whiteSpace=wrap;html=1;shadow=0;strokeColor=#666666;strokeWidth=2;fontFamily=Ubuntu;fontSize=22;fontColor=#333333;fontStyle=0;fillColor=#f5f5f5;comic=0;" parent="NgqLDLgxcCzB81dorVKN-50" vertex="1">
          <mxGeometry x="150" width="50" height="40" as="geometry" />
        </mxCell>
        <mxCell id="NgqLDLgxcCzB81dorVKN-54" value="" style="rounded=0;whiteSpace=wrap;html=1;shadow=0;strokeColor=#666666;strokeWidth=2;fontFamily=Ubuntu;fontSize=22;fontColor=#333333;fontStyle=0;fillColor=#f5f5f5;comic=0;" parent="NgqLDLgxcCzB81dorVKN-50" vertex="1">
          <mxGeometry width="50" height="40" as="geometry" />
        </mxCell>
        <mxCell id="NgqLDLgxcCzB81dorVKN-55" value="" style="group" parent="1" vertex="1" connectable="0">
          <mxGeometry x="1130" y="700" width="400" height="40" as="geometry" />
        </mxCell>
        <mxCell id="NgqLDLgxcCzB81dorVKN-56" value="" style="group" parent="NgqLDLgxcCzB81dorVKN-55" vertex="1" connectable="0">
          <mxGeometry width="200" height="40" as="geometry" />
        </mxCell>
        <mxCell id="NgqLDLgxcCzB81dorVKN-57" value="" style="rounded=0;whiteSpace=wrap;html=1;shadow=0;strokeColor=#666666;strokeWidth=2;fontFamily=Ubuntu;fontSize=22;fontColor=#333333;fontStyle=0;fillColor=#f5f5f5;comic=0;" parent="NgqLDLgxcCzB81dorVKN-56" vertex="1">
          <mxGeometry x="50" width="50" height="40" as="geometry" />
        </mxCell>
        <mxCell id="NgqLDLgxcCzB81dorVKN-58" value="" style="rounded=0;whiteSpace=wrap;html=1;shadow=0;strokeColor=#666666;strokeWidth=2;fontFamily=Ubuntu;fontSize=22;fontColor=#333333;fontStyle=0;fillColor=#f5f5f5;comic=0;" parent="NgqLDLgxcCzB81dorVKN-56" vertex="1">
          <mxGeometry x="100" width="50" height="40" as="geometry" />
        </mxCell>
        <mxCell id="NgqLDLgxcCzB81dorVKN-59" value="" style="rounded=0;whiteSpace=wrap;html=1;shadow=0;strokeColor=#666666;strokeWidth=2;fontFamily=Ubuntu;fontSize=22;fontColor=#333333;fontStyle=0;fillColor=#f5f5f5;comic=0;" parent="NgqLDLgxcCzB81dorVKN-56" vertex="1">
          <mxGeometry x="150" width="50" height="40" as="geometry" />
        </mxCell>
        <mxCell id="NgqLDLgxcCzB81dorVKN-60" value="" style="rounded=0;whiteSpace=wrap;html=1;shadow=0;strokeColor=#666666;strokeWidth=2;fontFamily=Ubuntu;fontSize=22;fontColor=#333333;fontStyle=0;fillColor=#f5f5f5;comic=0;" parent="NgqLDLgxcCzB81dorVKN-56" vertex="1">
          <mxGeometry width="50" height="40" as="geometry" />
        </mxCell>
        <mxCell id="NgqLDLgxcCzB81dorVKN-61" value="" style="group" parent="NgqLDLgxcCzB81dorVKN-55" vertex="1" connectable="0">
          <mxGeometry x="200" width="200" height="40" as="geometry" />
        </mxCell>
        <mxCell id="NgqLDLgxcCzB81dorVKN-62" value="" style="rounded=0;whiteSpace=wrap;html=1;shadow=0;strokeColor=#666666;strokeWidth=2;fontFamily=Ubuntu;fontSize=22;fontColor=#333333;fontStyle=0;fillColor=#f5f5f5;comic=0;" parent="NgqLDLgxcCzB81dorVKN-61" vertex="1">
          <mxGeometry x="50" width="50" height="40" as="geometry" />
        </mxCell>
        <mxCell id="NgqLDLgxcCzB81dorVKN-63" value="" style="rounded=0;whiteSpace=wrap;html=1;shadow=0;strokeColor=#666666;strokeWidth=2;fontFamily=Ubuntu;fontSize=22;fontColor=#333333;fontStyle=0;fillColor=#f5f5f5;comic=0;" parent="NgqLDLgxcCzB81dorVKN-61" vertex="1">
          <mxGeometry x="100" width="50" height="40" as="geometry" />
        </mxCell>
        <mxCell id="NgqLDLgxcCzB81dorVKN-64" value="" style="rounded=0;whiteSpace=wrap;html=1;shadow=0;strokeColor=#666666;strokeWidth=2;fontFamily=Ubuntu;fontSize=22;fontColor=#333333;fontStyle=0;fillColor=#f5f5f5;comic=0;" parent="NgqLDLgxcCzB81dorVKN-61" vertex="1">
          <mxGeometry x="150" width="50" height="40" as="geometry" />
        </mxCell>
        <mxCell id="NgqLDLgxcCzB81dorVKN-65" value="" style="rounded=0;whiteSpace=wrap;html=1;shadow=0;strokeColor=#666666;strokeWidth=2;fontFamily=Ubuntu;fontSize=22;fontColor=#333333;fontStyle=0;fillColor=#f5f5f5;comic=0;" parent="NgqLDLgxcCzB81dorVKN-61" vertex="1">
          <mxGeometry width="50" height="40" as="geometry" />
        </mxCell>
        <mxCell id="PiwZXt4cNnozb1wIIHgG-33" value="" style="rounded=0;whiteSpace=wrap;html=1;shadow=0;strokeColor=#666666;strokeWidth=2;fontFamily=Ubuntu;fontSize=22;fontColor=#333333;fontStyle=0;fillColor=#f5f5f5;comic=0;" parent="1" vertex="1">
          <mxGeometry x="580" y="230" width="50" height="40" as="geometry" />
        </mxCell>
        <mxCell id="PiwZXt4cNnozb1wIIHgG-34" value="" style="rounded=0;whiteSpace=wrap;html=1;shadow=0;strokeColor=#666666;strokeWidth=2;fontFamily=Ubuntu;fontSize=22;fontColor=#333333;fontStyle=0;fillColor=#f5f5f5;comic=0;" parent="1" vertex="1">
          <mxGeometry x="630" y="230" width="50" height="40" as="geometry" />
        </mxCell>
        <mxCell id="PiwZXt4cNnozb1wIIHgG-35" value="" style="rounded=0;whiteSpace=wrap;html=1;shadow=0;strokeColor=#666666;strokeWidth=2;fontFamily=Ubuntu;fontSize=22;fontColor=#333333;fontStyle=0;fillColor=#f5f5f5;comic=0;" parent="1" vertex="1">
          <mxGeometry x="680" y="230" width="50" height="40" as="geometry" />
        </mxCell>
        <mxCell id="PiwZXt4cNnozb1wIIHgG-40" value="" style="rounded=0;whiteSpace=wrap;html=1;shadow=0;strokeColor=#666666;strokeWidth=2;fontFamily=Ubuntu;fontSize=22;fontColor=#333333;fontStyle=0;fillColor=#f5f5f5;comic=0;" parent="1" vertex="1">
          <mxGeometry x="530" y="230" width="50" height="40" as="geometry" />
        </mxCell>
        <mxCell id="PiwZXt4cNnozb1wIIHgG-47" value="" style="rounded=0;whiteSpace=wrap;html=1;shadow=0;strokeColor=#666666;strokeWidth=2;fontFamily=Ubuntu;fontSize=22;fontColor=#333333;fontStyle=0;fillColor=#f5f5f5;comic=0;" parent="1" vertex="1">
          <mxGeometry x="580" y="320" width="50" height="40" as="geometry" />
        </mxCell>
        <mxCell id="PiwZXt4cNnozb1wIIHgG-48" value="" style="rounded=0;whiteSpace=wrap;html=1;shadow=0;strokeColor=#666666;strokeWidth=2;fontFamily=Ubuntu;fontSize=22;fontColor=#333333;fontStyle=0;fillColor=#f5f5f5;comic=0;" parent="1" vertex="1">
          <mxGeometry x="630" y="320" width="50" height="40" as="geometry" />
        </mxCell>
        <mxCell id="PiwZXt4cNnozb1wIIHgG-49" value="" style="rounded=0;whiteSpace=wrap;html=1;shadow=0;strokeColor=#666666;strokeWidth=2;fontFamily=Ubuntu;fontSize=22;fontColor=#333333;fontStyle=0;fillColor=#f5f5f5;comic=0;" parent="1" vertex="1">
          <mxGeometry x="680" y="320" width="50" height="40" as="geometry" />
        </mxCell>
        <mxCell id="PiwZXt4cNnozb1wIIHgG-50" value="" style="rounded=0;whiteSpace=wrap;html=1;shadow=0;strokeColor=#666666;strokeWidth=2;fontFamily=Ubuntu;fontSize=22;fontColor=#333333;fontStyle=0;fillColor=#f5f5f5;comic=0;" parent="1" vertex="1">
          <mxGeometry x="530" y="320" width="50" height="40" as="geometry" />
        </mxCell>
        <mxCell id="PiwZXt4cNnozb1wIIHgG-56" value="" style="group;fillColor=#f5f5f5;fontColor=#333333;strokeColor=#666666;" parent="1" vertex="1" connectable="0">
          <mxGeometry x="730" y="410" width="200" height="40" as="geometry" />
        </mxCell>
        <mxCell id="PiwZXt4cNnozb1wIIHgG-57" value="" style="rounded=0;whiteSpace=wrap;html=1;shadow=0;strokeColor=#666666;strokeWidth=2;fontFamily=Ubuntu;fontSize=22;fontColor=#333333;fontStyle=0;fillColor=#f5f5f5;comic=0;" parent="PiwZXt4cNnozb1wIIHgG-56" vertex="1">
          <mxGeometry x="50" width="50" height="40" as="geometry" />
        </mxCell>
        <mxCell id="PiwZXt4cNnozb1wIIHgG-58" value="" style="rounded=0;whiteSpace=wrap;html=1;shadow=0;strokeColor=#666666;strokeWidth=2;fontFamily=Ubuntu;fontSize=22;fontColor=#333333;fontStyle=0;fillColor=#f5f5f5;comic=0;" parent="PiwZXt4cNnozb1wIIHgG-56" vertex="1">
          <mxGeometry x="100" width="50" height="40" as="geometry" />
        </mxCell>
        <mxCell id="PiwZXt4cNnozb1wIIHgG-59" value="" style="rounded=0;whiteSpace=wrap;html=1;shadow=0;strokeColor=#666666;strokeWidth=2;fontFamily=Ubuntu;fontSize=22;fontColor=#333333;fontStyle=0;fillColor=#f5f5f5;comic=0;" parent="PiwZXt4cNnozb1wIIHgG-56" vertex="1">
          <mxGeometry x="150" width="50" height="40" as="geometry" />
        </mxCell>
        <mxCell id="PiwZXt4cNnozb1wIIHgG-60" value="" style="rounded=0;whiteSpace=wrap;html=1;shadow=0;strokeColor=#666666;strokeWidth=2;fontFamily=Ubuntu;fontSize=22;fontColor=#333333;fontStyle=0;fillColor=#f5f5f5;comic=0;" parent="PiwZXt4cNnozb1wIIHgG-56" vertex="1">
          <mxGeometry width="50" height="40" as="geometry" />
        </mxCell>
        <mxCell id="NgqLDLgxcCzB81dorVKN-16" value="" style="group" parent="1" vertex="1" connectable="0">
          <mxGeometry x="930" y="410" width="200" height="40" as="geometry" />
        </mxCell>
        <mxCell id="NgqLDLgxcCzB81dorVKN-17" value="" style="rounded=0;whiteSpace=wrap;html=1;shadow=0;strokeColor=#666666;strokeWidth=2;fontFamily=Ubuntu;fontSize=22;fontColor=#333333;fontStyle=0;fillColor=#f5f5f5;comic=0;" parent="NgqLDLgxcCzB81dorVKN-16" vertex="1">
          <mxGeometry x="50" width="50" height="40" as="geometry" />
        </mxCell>
        <mxCell id="NgqLDLgxcCzB81dorVKN-18" value="" style="rounded=0;whiteSpace=wrap;html=1;shadow=0;strokeColor=#666666;strokeWidth=2;fontFamily=Ubuntu;fontSize=22;fontColor=#333333;fontStyle=0;fillColor=#f5f5f5;comic=0;" parent="NgqLDLgxcCzB81dorVKN-16" vertex="1">
          <mxGeometry x="100" width="50" height="40" as="geometry" />
        </mxCell>
        <mxCell id="NgqLDLgxcCzB81dorVKN-19" value="" style="rounded=0;whiteSpace=wrap;html=1;shadow=0;strokeColor=#666666;strokeWidth=2;fontFamily=Ubuntu;fontSize=22;fontColor=#333333;fontStyle=0;fillColor=#f5f5f5;comic=0;" parent="NgqLDLgxcCzB81dorVKN-16" vertex="1">
          <mxGeometry x="150" width="50" height="40" as="geometry" />
        </mxCell>
        <mxCell id="NgqLDLgxcCzB81dorVKN-20" value="" style="rounded=0;whiteSpace=wrap;html=1;shadow=0;strokeColor=#666666;strokeWidth=2;fontFamily=Ubuntu;fontSize=22;fontColor=#333333;fontStyle=0;fillColor=#f5f5f5;comic=0;" parent="NgqLDLgxcCzB81dorVKN-16" vertex="1">
          <mxGeometry width="50" height="40" as="geometry" />
        </mxCell>
        <mxCell id="NgqLDLgxcCzB81dorVKN-100" value="12" style="rounded=0;whiteSpace=wrap;html=1;shadow=0;strokeColor=#6c8ebf;strokeWidth=2;fontFamily=Ubuntu;fontSize=22;fontColor=#264653;fontStyle=0;fillColor=#dae8fc;comic=0;" parent="1" vertex="1">
          <mxGeometry x="1530" y="500" width="400" height="40" as="geometry" />
        </mxCell>
        <mxCell id="NgqLDLgxcCzB81dorVKN-102" value="0x00005576 942c4bc0" style="rounded=0;whiteSpace=wrap;html=1;shadow=0;strokeColor=#d79b00;strokeWidth=2;fontFamily=Ubuntu;fontSize=22;fontColor=#264653;fontStyle=0;fillColor=#ffe6cc;comic=0;" parent="1" vertex="1">
          <mxGeometry x="730" y="500" width="400" height="40" as="geometry" />
        </mxCell>
        <mxCell id="NgqLDLgxcCzB81dorVKN-101" value="12" style="rounded=0;whiteSpace=wrap;html=1;shadow=0;strokeColor=#6c8ebf;strokeWidth=2;fontFamily=Ubuntu;fontSize=22;fontColor=#264653;fontStyle=0;fillColor=#dae8fc;comic=0;" parent="1" vertex="1">
          <mxGeometry x="1130" y="500" width="400" height="40" as="geometry" />
        </mxCell>
        <mxCell id="EGDx3WqkRl2FaNsYt4uz-1" value="Copy" style="rounded=1;whiteSpace=wrap;html=1;shadow=0;strokeColor=default;strokeWidth=2;fontFamily=Ubuntu;fontSize=22;fontColor=#264653;fontStyle=0;fillColor=#CFE2F3;comic=1;" vertex="1" parent="1">
          <mxGeometry x="150" y="590" width="120" height="60" as="geometry" />
        </mxCell>
        <mxCell id="EGDx3WqkRl2FaNsYt4uz-22" value="0x00005576 a04b2c94" style="rounded=0;whiteSpace=wrap;html=1;shadow=0;strokeColor=#d79b00;strokeWidth=2;fontFamily=Ubuntu;fontSize=22;fontColor=#264653;fontStyle=0;fillColor=#ffe6cc;comic=0;" vertex="1" parent="1">
          <mxGeometry x="730" y="610" width="400" height="40" as="geometry" />
        </mxCell>
        <mxCell id="EGDx3WqkRl2FaNsYt4uz-23" value="" style="group" vertex="1" connectable="0" parent="1">
          <mxGeometry x="330" y="500" width="200" height="40" as="geometry" />
        </mxCell>
        <mxCell id="EGDx3WqkRl2FaNsYt4uz-24" value="3" style="rounded=0;whiteSpace=wrap;html=1;shadow=0;strokeColor=#264653;strokeWidth=2;fontFamily=Ubuntu;fontSize=22;fontColor=#264653;fontStyle=0;fillColor=#2a9d8f;comic=0;" vertex="1" parent="EGDx3WqkRl2FaNsYt4uz-23">
          <mxGeometry width="50" height="40" as="geometry" />
        </mxCell>
        <mxCell id="EGDx3WqkRl2FaNsYt4uz-25" value="" style="rounded=0;whiteSpace=wrap;html=1;shadow=0;strokeColor=#666666;strokeWidth=2;fontFamily=Ubuntu;fontSize=22;fontColor=#333333;fontStyle=0;fillColor=#f5f5f5;comic=0;" vertex="1" parent="EGDx3WqkRl2FaNsYt4uz-23">
          <mxGeometry x="50" width="50" height="40" as="geometry" />
        </mxCell>
        <mxCell id="EGDx3WqkRl2FaNsYt4uz-26" value="" style="rounded=0;whiteSpace=wrap;html=1;shadow=0;strokeColor=#666666;strokeWidth=2;fontFamily=Ubuntu;fontSize=22;fontColor=#333333;fontStyle=0;fillColor=#f5f5f5;comic=0;" vertex="1" parent="EGDx3WqkRl2FaNsYt4uz-23">
          <mxGeometry x="100" width="50" height="40" as="geometry" />
        </mxCell>
        <mxCell id="EGDx3WqkRl2FaNsYt4uz-27" value="" style="rounded=0;whiteSpace=wrap;html=1;shadow=0;strokeColor=#666666;strokeWidth=2;fontFamily=Ubuntu;fontSize=22;fontColor=#333333;fontStyle=0;fillColor=#f5f5f5;comic=0;" vertex="1" parent="EGDx3WqkRl2FaNsYt4uz-23">
          <mxGeometry x="150" width="50" height="40" as="geometry" />
        </mxCell>
        <mxCell id="EGDx3WqkRl2FaNsYt4uz-28" value="" style="group" vertex="1" connectable="0" parent="1">
          <mxGeometry x="530" y="500" width="200" height="40" as="geometry" />
        </mxCell>
        <mxCell id="EGDx3WqkRl2FaNsYt4uz-29" value="" style="rounded=0;whiteSpace=wrap;html=1;shadow=0;strokeColor=#666666;strokeWidth=2;fontFamily=Ubuntu;fontSize=22;fontColor=#333333;fontStyle=0;fillColor=#f5f5f5;comic=0;" vertex="1" parent="EGDx3WqkRl2FaNsYt4uz-28">
          <mxGeometry x="50" width="50" height="40" as="geometry" />
        </mxCell>
        <mxCell id="EGDx3WqkRl2FaNsYt4uz-30" value="" style="rounded=0;whiteSpace=wrap;html=1;shadow=0;strokeColor=#666666;strokeWidth=2;fontFamily=Ubuntu;fontSize=22;fontColor=#333333;fontStyle=0;fillColor=#f5f5f5;comic=0;" vertex="1" parent="EGDx3WqkRl2FaNsYt4uz-28">
          <mxGeometry x="100" width="50" height="40" as="geometry" />
        </mxCell>
        <mxCell id="EGDx3WqkRl2FaNsYt4uz-31" value="" style="rounded=0;whiteSpace=wrap;html=1;shadow=0;strokeColor=#666666;strokeWidth=2;fontFamily=Ubuntu;fontSize=22;fontColor=#333333;fontStyle=0;fillColor=#f5f5f5;comic=0;" vertex="1" parent="EGDx3WqkRl2FaNsYt4uz-28">
          <mxGeometry x="150" width="50" height="40" as="geometry" />
        </mxCell>
        <mxCell id="EGDx3WqkRl2FaNsYt4uz-32" value="" style="rounded=0;whiteSpace=wrap;html=1;shadow=0;strokeColor=#666666;strokeWidth=2;fontFamily=Ubuntu;fontSize=22;fontColor=#333333;fontStyle=0;fillColor=#f5f5f5;comic=0;" vertex="1" parent="EGDx3WqkRl2FaNsYt4uz-28">
          <mxGeometry width="50" height="40" as="geometry" />
        </mxCell>
        <mxCell id="EGDx3WqkRl2FaNsYt4uz-39" value="" style="group" vertex="1" connectable="0" parent="1">
          <mxGeometry x="1530" y="410" width="400" height="40" as="geometry" />
        </mxCell>
        <mxCell id="EGDx3WqkRl2FaNsYt4uz-40" value="" style="group" vertex="1" connectable="0" parent="EGDx3WqkRl2FaNsYt4uz-39">
          <mxGeometry width="200" height="40" as="geometry" />
        </mxCell>
        <mxCell id="EGDx3WqkRl2FaNsYt4uz-41" value="" style="rounded=0;whiteSpace=wrap;html=1;shadow=0;strokeColor=#666666;strokeWidth=2;fontFamily=Ubuntu;fontSize=22;fontColor=#333333;fontStyle=0;fillColor=#f5f5f5;comic=0;" vertex="1" parent="EGDx3WqkRl2FaNsYt4uz-40">
          <mxGeometry x="50" width="50" height="40" as="geometry" />
        </mxCell>
        <mxCell id="EGDx3WqkRl2FaNsYt4uz-42" value="" style="rounded=0;whiteSpace=wrap;html=1;shadow=0;strokeColor=#666666;strokeWidth=2;fontFamily=Ubuntu;fontSize=22;fontColor=#333333;fontStyle=0;fillColor=#f5f5f5;comic=0;" vertex="1" parent="EGDx3WqkRl2FaNsYt4uz-40">
          <mxGeometry x="100" width="50" height="40" as="geometry" />
        </mxCell>
        <mxCell id="EGDx3WqkRl2FaNsYt4uz-43" value="" style="rounded=0;whiteSpace=wrap;html=1;shadow=0;strokeColor=#666666;strokeWidth=2;fontFamily=Ubuntu;fontSize=22;fontColor=#333333;fontStyle=0;fillColor=#f5f5f5;comic=0;" vertex="1" parent="EGDx3WqkRl2FaNsYt4uz-40">
          <mxGeometry x="150" width="50" height="40" as="geometry" />
        </mxCell>
        <mxCell id="EGDx3WqkRl2FaNsYt4uz-44" value="" style="rounded=0;whiteSpace=wrap;html=1;shadow=0;strokeColor=#666666;strokeWidth=2;fontFamily=Ubuntu;fontSize=22;fontColor=#333333;fontStyle=0;fillColor=#f5f5f5;comic=0;" vertex="1" parent="EGDx3WqkRl2FaNsYt4uz-40">
          <mxGeometry width="50" height="40" as="geometry" />
        </mxCell>
        <mxCell id="EGDx3WqkRl2FaNsYt4uz-45" value="" style="group" vertex="1" connectable="0" parent="EGDx3WqkRl2FaNsYt4uz-39">
          <mxGeometry x="200" width="200" height="40" as="geometry" />
        </mxCell>
        <mxCell id="EGDx3WqkRl2FaNsYt4uz-46" value="" style="rounded=0;whiteSpace=wrap;html=1;shadow=0;strokeColor=#666666;strokeWidth=2;fontFamily=Ubuntu;fontSize=22;fontColor=#333333;fontStyle=0;fillColor=#f5f5f5;comic=0;" vertex="1" parent="EGDx3WqkRl2FaNsYt4uz-45">
          <mxGeometry x="50" width="50" height="40" as="geometry" />
        </mxCell>
        <mxCell id="EGDx3WqkRl2FaNsYt4uz-47" value="" style="rounded=0;whiteSpace=wrap;html=1;shadow=0;strokeColor=#666666;strokeWidth=2;fontFamily=Ubuntu;fontSize=22;fontColor=#333333;fontStyle=0;fillColor=#f5f5f5;comic=0;" vertex="1" parent="EGDx3WqkRl2FaNsYt4uz-45">
          <mxGeometry x="100" width="50" height="40" as="geometry" />
        </mxCell>
        <mxCell id="EGDx3WqkRl2FaNsYt4uz-48" value="" style="rounded=0;whiteSpace=wrap;html=1;shadow=0;strokeColor=#666666;strokeWidth=2;fontFamily=Ubuntu;fontSize=22;fontColor=#333333;fontStyle=0;fillColor=#f5f5f5;comic=0;" vertex="1" parent="EGDx3WqkRl2FaNsYt4uz-45">
          <mxGeometry x="150" width="50" height="40" as="geometry" />
        </mxCell>
        <mxCell id="EGDx3WqkRl2FaNsYt4uz-49" value="" style="rounded=0;whiteSpace=wrap;html=1;shadow=0;strokeColor=#666666;strokeWidth=2;fontFamily=Ubuntu;fontSize=22;fontColor=#333333;fontStyle=0;fillColor=#f5f5f5;comic=0;" vertex="1" parent="EGDx3WqkRl2FaNsYt4uz-45">
          <mxGeometry width="50" height="40" as="geometry" />
        </mxCell>
        <mxCell id="EGDx3WqkRl2FaNsYt4uz-50" value="" style="group" vertex="1" connectable="0" parent="1">
          <mxGeometry x="1530" y="700" width="400" height="40" as="geometry" />
        </mxCell>
        <mxCell id="EGDx3WqkRl2FaNsYt4uz-51" value="" style="group" vertex="1" connectable="0" parent="EGDx3WqkRl2FaNsYt4uz-50">
          <mxGeometry width="200" height="40" as="geometry" />
        </mxCell>
        <mxCell id="EGDx3WqkRl2FaNsYt4uz-52" value="" style="rounded=0;whiteSpace=wrap;html=1;shadow=0;strokeColor=#666666;strokeWidth=2;fontFamily=Ubuntu;fontSize=22;fontColor=#333333;fontStyle=0;fillColor=#f5f5f5;comic=0;" vertex="1" parent="EGDx3WqkRl2FaNsYt4uz-51">
          <mxGeometry x="50" width="50" height="40" as="geometry" />
        </mxCell>
        <mxCell id="EGDx3WqkRl2FaNsYt4uz-53" value="" style="rounded=0;whiteSpace=wrap;html=1;shadow=0;strokeColor=#666666;strokeWidth=2;fontFamily=Ubuntu;fontSize=22;fontColor=#333333;fontStyle=0;fillColor=#f5f5f5;comic=0;" vertex="1" parent="EGDx3WqkRl2FaNsYt4uz-51">
          <mxGeometry x="100" width="50" height="40" as="geometry" />
        </mxCell>
        <mxCell id="EGDx3WqkRl2FaNsYt4uz-54" value="" style="rounded=0;whiteSpace=wrap;html=1;shadow=0;strokeColor=#666666;strokeWidth=2;fontFamily=Ubuntu;fontSize=22;fontColor=#333333;fontStyle=0;fillColor=#f5f5f5;comic=0;" vertex="1" parent="EGDx3WqkRl2FaNsYt4uz-51">
          <mxGeometry x="150" width="50" height="40" as="geometry" />
        </mxCell>
        <mxCell id="EGDx3WqkRl2FaNsYt4uz-55" value="" style="rounded=0;whiteSpace=wrap;html=1;shadow=0;strokeColor=#666666;strokeWidth=2;fontFamily=Ubuntu;fontSize=22;fontColor=#333333;fontStyle=0;fillColor=#f5f5f5;comic=0;" vertex="1" parent="EGDx3WqkRl2FaNsYt4uz-51">
          <mxGeometry width="50" height="40" as="geometry" />
        </mxCell>
        <mxCell id="EGDx3WqkRl2FaNsYt4uz-56" value="" style="group" vertex="1" connectable="0" parent="EGDx3WqkRl2FaNsYt4uz-50">
          <mxGeometry x="200" width="200" height="40" as="geometry" />
        </mxCell>
        <mxCell id="EGDx3WqkRl2FaNsYt4uz-57" value="" style="rounded=0;whiteSpace=wrap;html=1;shadow=0;strokeColor=#666666;strokeWidth=2;fontFamily=Ubuntu;fontSize=22;fontColor=#333333;fontStyle=0;fillColor=#f5f5f5;comic=0;" vertex="1" parent="EGDx3WqkRl2FaNsYt4uz-56">
          <mxGeometry x="50" width="50" height="40" as="geometry" />
        </mxCell>
        <mxCell id="EGDx3WqkRl2FaNsYt4uz-58" value="" style="rounded=0;whiteSpace=wrap;html=1;shadow=0;strokeColor=#666666;strokeWidth=2;fontFamily=Ubuntu;fontSize=22;fontColor=#333333;fontStyle=0;fillColor=#f5f5f5;comic=0;" vertex="1" parent="EGDx3WqkRl2FaNsYt4uz-56">
          <mxGeometry x="100" width="50" height="40" as="geometry" />
        </mxCell>
        <mxCell id="EGDx3WqkRl2FaNsYt4uz-59" value="" style="rounded=0;whiteSpace=wrap;html=1;shadow=0;strokeColor=#666666;strokeWidth=2;fontFamily=Ubuntu;fontSize=22;fontColor=#333333;fontStyle=0;fillColor=#f5f5f5;comic=0;" vertex="1" parent="EGDx3WqkRl2FaNsYt4uz-56">
          <mxGeometry x="150" width="50" height="40" as="geometry" />
        </mxCell>
        <mxCell id="EGDx3WqkRl2FaNsYt4uz-60" value="" style="rounded=0;whiteSpace=wrap;html=1;shadow=0;strokeColor=#666666;strokeWidth=2;fontFamily=Ubuntu;fontSize=22;fontColor=#333333;fontStyle=0;fillColor=#f5f5f5;comic=0;" vertex="1" parent="EGDx3WqkRl2FaNsYt4uz-56">
          <mxGeometry width="50" height="40" as="geometry" />
        </mxCell>
        <mxCell id="EGDx3WqkRl2FaNsYt4uz-61" value="" style="group" vertex="1" connectable="0" parent="1">
          <mxGeometry x="1530" y="230" width="400" height="40" as="geometry" />
        </mxCell>
        <mxCell id="EGDx3WqkRl2FaNsYt4uz-62" value="" style="group" vertex="1" connectable="0" parent="EGDx3WqkRl2FaNsYt4uz-61">
          <mxGeometry width="200" height="40" as="geometry" />
        </mxCell>
        <mxCell id="EGDx3WqkRl2FaNsYt4uz-63" value="" style="rounded=0;whiteSpace=wrap;html=1;shadow=0;strokeColor=#666666;strokeWidth=2;fontFamily=Ubuntu;fontSize=22;fontColor=#333333;fontStyle=0;fillColor=#f5f5f5;comic=0;" vertex="1" parent="EGDx3WqkRl2FaNsYt4uz-62">
          <mxGeometry x="50" width="50" height="40" as="geometry" />
        </mxCell>
        <mxCell id="EGDx3WqkRl2FaNsYt4uz-64" value="" style="rounded=0;whiteSpace=wrap;html=1;shadow=0;strokeColor=#666666;strokeWidth=2;fontFamily=Ubuntu;fontSize=22;fontColor=#333333;fontStyle=0;fillColor=#f5f5f5;comic=0;" vertex="1" parent="EGDx3WqkRl2FaNsYt4uz-62">
          <mxGeometry x="100" width="50" height="40" as="geometry" />
        </mxCell>
        <mxCell id="EGDx3WqkRl2FaNsYt4uz-65" value="" style="rounded=0;whiteSpace=wrap;html=1;shadow=0;strokeColor=#666666;strokeWidth=2;fontFamily=Ubuntu;fontSize=22;fontColor=#333333;fontStyle=0;fillColor=#f5f5f5;comic=0;" vertex="1" parent="EGDx3WqkRl2FaNsYt4uz-62">
          <mxGeometry x="150" width="50" height="40" as="geometry" />
        </mxCell>
        <mxCell id="EGDx3WqkRl2FaNsYt4uz-66" value="" style="rounded=0;whiteSpace=wrap;html=1;shadow=0;strokeColor=#666666;strokeWidth=2;fontFamily=Ubuntu;fontSize=22;fontColor=#333333;fontStyle=0;fillColor=#f5f5f5;comic=0;" vertex="1" parent="EGDx3WqkRl2FaNsYt4uz-62">
          <mxGeometry width="50" height="40" as="geometry" />
        </mxCell>
        <mxCell id="EGDx3WqkRl2FaNsYt4uz-67" value="" style="group" vertex="1" connectable="0" parent="EGDx3WqkRl2FaNsYt4uz-61">
          <mxGeometry x="200" width="200" height="40" as="geometry" />
        </mxCell>
        <mxCell id="EGDx3WqkRl2FaNsYt4uz-68" value="" style="rounded=0;whiteSpace=wrap;html=1;shadow=0;strokeColor=#666666;strokeWidth=2;fontFamily=Ubuntu;fontSize=22;fontColor=#333333;fontStyle=0;fillColor=#f5f5f5;comic=0;" vertex="1" parent="EGDx3WqkRl2FaNsYt4uz-67">
          <mxGeometry x="50" width="50" height="40" as="geometry" />
        </mxCell>
        <mxCell id="EGDx3WqkRl2FaNsYt4uz-69" value="" style="rounded=0;whiteSpace=wrap;html=1;shadow=0;strokeColor=#666666;strokeWidth=2;fontFamily=Ubuntu;fontSize=22;fontColor=#333333;fontStyle=0;fillColor=#f5f5f5;comic=0;" vertex="1" parent="EGDx3WqkRl2FaNsYt4uz-67">
          <mxGeometry x="100" width="50" height="40" as="geometry" />
        </mxCell>
        <mxCell id="EGDx3WqkRl2FaNsYt4uz-70" value="" style="rounded=0;whiteSpace=wrap;html=1;shadow=0;strokeColor=#666666;strokeWidth=2;fontFamily=Ubuntu;fontSize=22;fontColor=#333333;fontStyle=0;fillColor=#f5f5f5;comic=0;" vertex="1" parent="EGDx3WqkRl2FaNsYt4uz-67">
          <mxGeometry x="150" width="50" height="40" as="geometry" />
        </mxCell>
        <mxCell id="EGDx3WqkRl2FaNsYt4uz-71" value="" style="rounded=0;whiteSpace=wrap;html=1;shadow=0;strokeColor=#666666;strokeWidth=2;fontFamily=Ubuntu;fontSize=22;fontColor=#333333;fontStyle=0;fillColor=#f5f5f5;comic=0;" vertex="1" parent="EGDx3WqkRl2FaNsYt4uz-67">
          <mxGeometry width="50" height="40" as="geometry" />
        </mxCell>
        <mxCell id="EGDx3WqkRl2FaNsYt4uz-72" value="" style="group" vertex="1" connectable="0" parent="1">
          <mxGeometry x="1530" y="320" width="400" height="40" as="geometry" />
        </mxCell>
        <mxCell id="EGDx3WqkRl2FaNsYt4uz-73" value="" style="group" vertex="1" connectable="0" parent="EGDx3WqkRl2FaNsYt4uz-72">
          <mxGeometry width="200" height="40" as="geometry" />
        </mxCell>
        <mxCell id="EGDx3WqkRl2FaNsYt4uz-74" value="" style="rounded=0;whiteSpace=wrap;html=1;shadow=0;strokeColor=#666666;strokeWidth=2;fontFamily=Ubuntu;fontSize=22;fontColor=#333333;fontStyle=0;fillColor=#f5f5f5;comic=0;" vertex="1" parent="EGDx3WqkRl2FaNsYt4uz-73">
          <mxGeometry x="50" width="50" height="40" as="geometry" />
        </mxCell>
        <mxCell id="EGDx3WqkRl2FaNsYt4uz-75" value="" style="rounded=0;whiteSpace=wrap;html=1;shadow=0;strokeColor=#666666;strokeWidth=2;fontFamily=Ubuntu;fontSize=22;fontColor=#333333;fontStyle=0;fillColor=#f5f5f5;comic=0;" vertex="1" parent="EGDx3WqkRl2FaNsYt4uz-73">
          <mxGeometry x="100" width="50" height="40" as="geometry" />
        </mxCell>
        <mxCell id="EGDx3WqkRl2FaNsYt4uz-76" value="" style="rounded=0;whiteSpace=wrap;html=1;shadow=0;strokeColor=#666666;strokeWidth=2;fontFamily=Ubuntu;fontSize=22;fontColor=#333333;fontStyle=0;fillColor=#f5f5f5;comic=0;" vertex="1" parent="EGDx3WqkRl2FaNsYt4uz-73">
          <mxGeometry x="150" width="50" height="40" as="geometry" />
        </mxCell>
        <mxCell id="EGDx3WqkRl2FaNsYt4uz-77" value="" style="rounded=0;whiteSpace=wrap;html=1;shadow=0;strokeColor=#666666;strokeWidth=2;fontFamily=Ubuntu;fontSize=22;fontColor=#333333;fontStyle=0;fillColor=#f5f5f5;comic=0;" vertex="1" parent="EGDx3WqkRl2FaNsYt4uz-73">
          <mxGeometry width="50" height="40" as="geometry" />
        </mxCell>
        <mxCell id="EGDx3WqkRl2FaNsYt4uz-78" value="" style="group" vertex="1" connectable="0" parent="EGDx3WqkRl2FaNsYt4uz-72">
          <mxGeometry x="200" width="200" height="40" as="geometry" />
        </mxCell>
        <mxCell id="EGDx3WqkRl2FaNsYt4uz-79" value="" style="rounded=0;whiteSpace=wrap;html=1;shadow=0;strokeColor=#666666;strokeWidth=2;fontFamily=Ubuntu;fontSize=22;fontColor=#333333;fontStyle=0;fillColor=#f5f5f5;comic=0;" vertex="1" parent="EGDx3WqkRl2FaNsYt4uz-78">
          <mxGeometry x="50" width="50" height="40" as="geometry" />
        </mxCell>
        <mxCell id="EGDx3WqkRl2FaNsYt4uz-80" value="" style="rounded=0;whiteSpace=wrap;html=1;shadow=0;strokeColor=#666666;strokeWidth=2;fontFamily=Ubuntu;fontSize=22;fontColor=#333333;fontStyle=0;fillColor=#f5f5f5;comic=0;" vertex="1" parent="EGDx3WqkRl2FaNsYt4uz-78">
          <mxGeometry x="100" width="50" height="40" as="geometry" />
        </mxCell>
        <mxCell id="EGDx3WqkRl2FaNsYt4uz-81" value="" style="rounded=0;whiteSpace=wrap;html=1;shadow=0;strokeColor=#666666;strokeWidth=2;fontFamily=Ubuntu;fontSize=22;fontColor=#333333;fontStyle=0;fillColor=#f5f5f5;comic=0;" vertex="1" parent="EGDx3WqkRl2FaNsYt4uz-78">
          <mxGeometry x="150" width="50" height="40" as="geometry" />
        </mxCell>
        <mxCell id="EGDx3WqkRl2FaNsYt4uz-82" value="" style="rounded=0;whiteSpace=wrap;html=1;shadow=0;strokeColor=#666666;strokeWidth=2;fontFamily=Ubuntu;fontSize=22;fontColor=#333333;fontStyle=0;fillColor=#f5f5f5;comic=0;" vertex="1" parent="EGDx3WqkRl2FaNsYt4uz-78">
          <mxGeometry width="50" height="40" as="geometry" />
        </mxCell>
        <mxCell id="EGDx3WqkRl2FaNsYt4uz-88" value="" style="group" vertex="1" connectable="0" parent="1">
          <mxGeometry x="330" y="610" width="200" height="40" as="geometry" />
        </mxCell>
        <mxCell id="EGDx3WqkRl2FaNsYt4uz-89" value="4" style="rounded=0;whiteSpace=wrap;html=1;shadow=0;strokeColor=#264653;strokeWidth=2;fontFamily=Ubuntu;fontSize=22;fontColor=#264653;fontStyle=0;fillColor=#2a9d8f;comic=0;" vertex="1" parent="EGDx3WqkRl2FaNsYt4uz-88">
          <mxGeometry width="50" height="40" as="geometry" />
        </mxCell>
        <mxCell id="EGDx3WqkRl2FaNsYt4uz-90" value="" style="rounded=0;whiteSpace=wrap;html=1;shadow=0;strokeColor=#666666;strokeWidth=2;fontFamily=Ubuntu;fontSize=22;fontColor=#333333;fontStyle=0;fillColor=#f5f5f5;comic=0;" vertex="1" parent="EGDx3WqkRl2FaNsYt4uz-88">
          <mxGeometry x="50" width="50" height="40" as="geometry" />
        </mxCell>
        <mxCell id="EGDx3WqkRl2FaNsYt4uz-91" value="" style="rounded=0;whiteSpace=wrap;html=1;shadow=0;strokeColor=#666666;strokeWidth=2;fontFamily=Ubuntu;fontSize=22;fontColor=#333333;fontStyle=0;fillColor=#f5f5f5;comic=0;" vertex="1" parent="EGDx3WqkRl2FaNsYt4uz-88">
          <mxGeometry x="100" width="50" height="40" as="geometry" />
        </mxCell>
        <mxCell id="EGDx3WqkRl2FaNsYt4uz-92" value="" style="rounded=0;whiteSpace=wrap;html=1;shadow=0;strokeColor=#666666;strokeWidth=2;fontFamily=Ubuntu;fontSize=22;fontColor=#333333;fontStyle=0;fillColor=#f5f5f5;comic=0;" vertex="1" parent="EGDx3WqkRl2FaNsYt4uz-88">
          <mxGeometry x="150" width="50" height="40" as="geometry" />
        </mxCell>
        <mxCell id="EGDx3WqkRl2FaNsYt4uz-93" value="" style="group" vertex="1" connectable="0" parent="1">
          <mxGeometry x="530" y="610" width="200" height="40" as="geometry" />
        </mxCell>
        <mxCell id="EGDx3WqkRl2FaNsYt4uz-94" value="" style="rounded=0;whiteSpace=wrap;html=1;shadow=0;strokeColor=#666666;strokeWidth=2;fontFamily=Ubuntu;fontSize=22;fontColor=#333333;fontStyle=0;fillColor=#f5f5f5;comic=0;" vertex="1" parent="EGDx3WqkRl2FaNsYt4uz-93">
          <mxGeometry x="50" width="50" height="40" as="geometry" />
        </mxCell>
        <mxCell id="EGDx3WqkRl2FaNsYt4uz-95" value="" style="rounded=0;whiteSpace=wrap;html=1;shadow=0;strokeColor=#666666;strokeWidth=2;fontFamily=Ubuntu;fontSize=22;fontColor=#333333;fontStyle=0;fillColor=#f5f5f5;comic=0;" vertex="1" parent="EGDx3WqkRl2FaNsYt4uz-93">
          <mxGeometry x="100" width="50" height="40" as="geometry" />
        </mxCell>
        <mxCell id="EGDx3WqkRl2FaNsYt4uz-96" value="" style="rounded=0;whiteSpace=wrap;html=1;shadow=0;strokeColor=#666666;strokeWidth=2;fontFamily=Ubuntu;fontSize=22;fontColor=#333333;fontStyle=0;fillColor=#f5f5f5;comic=0;" vertex="1" parent="EGDx3WqkRl2FaNsYt4uz-93">
          <mxGeometry x="150" width="50" height="40" as="geometry" />
        </mxCell>
        <mxCell id="EGDx3WqkRl2FaNsYt4uz-97" value="" style="rounded=0;whiteSpace=wrap;html=1;shadow=0;strokeColor=#666666;strokeWidth=2;fontFamily=Ubuntu;fontSize=22;fontColor=#333333;fontStyle=0;fillColor=#f5f5f5;comic=0;" vertex="1" parent="EGDx3WqkRl2FaNsYt4uz-93">
          <mxGeometry width="50" height="40" as="geometry" />
        </mxCell>
        <mxCell id="EGDx3WqkRl2FaNsYt4uz-98" value="24" style="rounded=0;whiteSpace=wrap;html=1;shadow=0;strokeColor=#6c8ebf;strokeWidth=2;fontFamily=Ubuntu;fontSize=22;fontColor=#264653;fontStyle=0;fillColor=#dae8fc;comic=0;" vertex="1" parent="1">
          <mxGeometry x="1130" y="610" width="400" height="40" as="geometry" />
        </mxCell>
        <mxCell id="EGDx3WqkRl2FaNsYt4uz-99" value="12" style="rounded=0;whiteSpace=wrap;html=1;shadow=0;strokeColor=#6c8ebf;strokeWidth=2;fontFamily=Ubuntu;fontSize=22;fontColor=#264653;fontStyle=0;fillColor=#dae8fc;comic=0;" vertex="1" parent="1">
          <mxGeometry x="1530" y="610" width="400" height="40" as="geometry" />
        </mxCell>
      </root>
    </mxGraphModel>
  </diagram>
</mxfile>
